<mxfile host="app.diagrams.net" agent="Mozilla/5.0 (Windows NT 10.0; Win64; x64) AppleWebKit/537.36 (KHTML, like Gecko) Chrome/133.0.0.0 Safari/537.36" version="26.0.14" pages="2">
  <diagram name="Page-1" id="Fv10s-yXYvz1uKfiNa6D">
    <mxGraphModel dx="3134" dy="772" grid="1" gridSize="10" guides="1" tooltips="1" connect="1" arrows="1" fold="1" page="1" pageScale="1" pageWidth="850" pageHeight="1100" math="0" shadow="0">
      <root>
        <mxCell id="0" />
        <mxCell id="1" parent="0" />
        <mxCell id="nBgqKDF0Gr87tgt5A-qY-2" value="" style="group" parent="1" vertex="1" connectable="0">
          <mxGeometry x="-1610" y="90" width="730" height="730" as="geometry" />
        </mxCell>
        <mxCell id="Ob1HFFcRESBsvUVa0jNh-1" value="" style="whiteSpace=wrap;html=1;aspect=fixed;" parent="nBgqKDF0Gr87tgt5A-qY-2" vertex="1">
          <mxGeometry width="730" height="730" as="geometry" />
        </mxCell>
        <mxCell id="Ob1HFFcRESBsvUVa0jNh-2" value="" style="endArrow=none;html=1;rounded=0;entryX=0.331;entryY=0.001;entryDx=0;entryDy=0;entryPerimeter=0;" parent="nBgqKDF0Gr87tgt5A-qY-2" edge="1">
          <mxGeometry width="50" height="50" relative="1" as="geometry">
            <mxPoint x="270.37" y="729.27" as="sourcePoint" />
            <mxPoint x="270.0000000000001" y="1.4210854715202004e-14" as="targetPoint" />
          </mxGeometry>
        </mxCell>
        <mxCell id="Ob1HFFcRESBsvUVa0jNh-3" value="" style="endArrow=none;html=1;rounded=0;exitX=0.655;exitY=0.996;exitDx=0;exitDy=0;exitPerimeter=0;" parent="nBgqKDF0Gr87tgt5A-qY-2" edge="1">
          <mxGeometry width="50" height="50" relative="1" as="geometry">
            <mxPoint x="509.9999999999999" y="728.5400000000002" as="sourcePoint" />
            <mxPoint x="511.85" y="1.4599999999999937" as="targetPoint" />
          </mxGeometry>
        </mxCell>
        <mxCell id="Ob1HFFcRESBsvUVa0jNh-4" value="" style="endArrow=none;html=1;rounded=0;exitX=0.001;exitY=0.075;exitDx=0;exitDy=0;exitPerimeter=0;entryX=0.999;entryY=0.077;entryDx=0;entryDy=0;entryPerimeter=0;" parent="nBgqKDF0Gr87tgt5A-qY-2" source="Ob1HFFcRESBsvUVa0jNh-1" target="Ob1HFFcRESBsvUVa0jNh-1" edge="1">
          <mxGeometry width="50" height="50" relative="1" as="geometry">
            <mxPoint x="340" y="40" as="sourcePoint" />
            <mxPoint x="390" y="-10" as="targetPoint" />
          </mxGeometry>
        </mxCell>
        <mxCell id="Ob1HFFcRESBsvUVa0jNh-5" value="&lt;font style=&quot;font-size: 14px;&quot;&gt;ลูกค้า&lt;/font&gt;" style="text;html=1;align=center;verticalAlign=middle;resizable=0;points=[];autosize=1;strokeColor=none;fillColor=none;" parent="nBgqKDF0Gr87tgt5A-qY-2" vertex="1">
          <mxGeometry x="105" y="10" width="60" height="30" as="geometry" />
        </mxCell>
        <mxCell id="Ob1HFFcRESBsvUVa0jNh-6" value="&lt;font style=&quot;font-size: 14px;&quot;&gt;ระบบ&lt;/font&gt;" style="text;html=1;align=center;verticalAlign=middle;resizable=0;points=[];autosize=1;strokeColor=none;fillColor=none;" parent="nBgqKDF0Gr87tgt5A-qY-2" vertex="1">
          <mxGeometry x="355" y="10" width="50" height="30" as="geometry" />
        </mxCell>
        <mxCell id="Ob1HFFcRESBsvUVa0jNh-7" value="&lt;font style=&quot;font-size: 14px;&quot;&gt;แอดมิน&lt;/font&gt;" style="text;html=1;align=center;verticalAlign=middle;resizable=0;points=[];autosize=1;strokeColor=none;fillColor=none;" parent="nBgqKDF0Gr87tgt5A-qY-2" vertex="1">
          <mxGeometry x="590" y="10" width="70" height="30" as="geometry" />
        </mxCell>
        <mxCell id="Ob1HFFcRESBsvUVa0jNh-8" value="" style="ellipse;html=1;shape=endState;fillColor=#000000;strokeColor=none;" parent="nBgqKDF0Gr87tgt5A-qY-2" vertex="1">
          <mxGeometry x="125.00999999999999" y="70" width="30" height="30" as="geometry" />
        </mxCell>
        <mxCell id="Ob1HFFcRESBsvUVa0jNh-9" value="" style="ellipse;html=1;shape=endState;fillColor=#000000;strokeColor=#000000;" parent="nBgqKDF0Gr87tgt5A-qY-2" vertex="1">
          <mxGeometry x="368.12" y="690" width="30" height="30" as="geometry" />
        </mxCell>
        <mxCell id="Ob1HFFcRESBsvUVa0jNh-37" style="edgeStyle=orthogonalEdgeStyle;rounded=0;orthogonalLoop=1;jettySize=auto;html=1;" parent="nBgqKDF0Gr87tgt5A-qY-2" source="Ob1HFFcRESBsvUVa0jNh-10" target="Ob1HFFcRESBsvUVa0jNh-11" edge="1">
          <mxGeometry relative="1" as="geometry" />
        </mxCell>
        <mxCell id="Ob1HFFcRESBsvUVa0jNh-10" value="&lt;font&gt;เข้าสู่ระบบ&lt;/font&gt;" style="rounded=1;whiteSpace=wrap;html=1;" parent="nBgqKDF0Gr87tgt5A-qY-2" vertex="1">
          <mxGeometry x="96.25" y="120" width="93.75" height="30" as="geometry" />
        </mxCell>
        <mxCell id="Ob1HFFcRESBsvUVa0jNh-39" style="edgeStyle=orthogonalEdgeStyle;rounded=0;orthogonalLoop=1;jettySize=auto;html=1;" parent="nBgqKDF0Gr87tgt5A-qY-2" source="Ob1HFFcRESBsvUVa0jNh-11" target="Ob1HFFcRESBsvUVa0jNh-13" edge="1">
          <mxGeometry relative="1" as="geometry" />
        </mxCell>
        <mxCell id="Ob1HFFcRESBsvUVa0jNh-11" value="&lt;font&gt;เลือกประเภทบริการ&lt;/font&gt;" style="rounded=1;whiteSpace=wrap;html=1;" parent="nBgqKDF0Gr87tgt5A-qY-2" vertex="1">
          <mxGeometry x="96.88" y="180" width="93.75" height="30" as="geometry" />
        </mxCell>
        <mxCell id="Ob1HFFcRESBsvUVa0jNh-36" style="edgeStyle=orthogonalEdgeStyle;rounded=0;orthogonalLoop=1;jettySize=auto;html=1;entryX=0;entryY=0.5;entryDx=0;entryDy=0;" parent="nBgqKDF0Gr87tgt5A-qY-2" source="Ob1HFFcRESBsvUVa0jNh-13" target="Ob1HFFcRESBsvUVa0jNh-26" edge="1">
          <mxGeometry relative="1" as="geometry" />
        </mxCell>
        <mxCell id="Ob1HFFcRESBsvUVa0jNh-40" style="edgeStyle=orthogonalEdgeStyle;rounded=0;orthogonalLoop=1;jettySize=auto;html=1;" parent="nBgqKDF0Gr87tgt5A-qY-2" source="Ob1HFFcRESBsvUVa0jNh-13" target="Ob1HFFcRESBsvUVa0jNh-25" edge="1">
          <mxGeometry relative="1" as="geometry" />
        </mxCell>
        <mxCell id="Ob1HFFcRESBsvUVa0jNh-13" value="&lt;font&gt;เลือกบริการย่อย&lt;/font&gt;" style="rounded=1;whiteSpace=wrap;html=1;" parent="nBgqKDF0Gr87tgt5A-qY-2" vertex="1">
          <mxGeometry x="96.88" y="240" width="93.75" height="30" as="geometry" />
        </mxCell>
        <mxCell id="Ob1HFFcRESBsvUVa0jNh-41" style="edgeStyle=orthogonalEdgeStyle;rounded=0;orthogonalLoop=1;jettySize=auto;html=1;entryX=0.5;entryY=0;entryDx=0;entryDy=0;" parent="nBgqKDF0Gr87tgt5A-qY-2" source="Ob1HFFcRESBsvUVa0jNh-25" target="Ob1HFFcRESBsvUVa0jNh-27" edge="1">
          <mxGeometry relative="1" as="geometry" />
        </mxCell>
        <mxCell id="Ob1HFFcRESBsvUVa0jNh-25" value="&lt;font&gt;เลือกจอง&lt;/font&gt;" style="rounded=1;whiteSpace=wrap;html=1;" parent="nBgqKDF0Gr87tgt5A-qY-2" vertex="1">
          <mxGeometry x="96.25" y="290" width="93.75" height="30" as="geometry" />
        </mxCell>
        <mxCell id="Ob1HFFcRESBsvUVa0jNh-26" value="&lt;font&gt;คำนวนค่าบริการ&lt;/font&gt;" style="rounded=1;whiteSpace=wrap;html=1;" parent="nBgqKDF0Gr87tgt5A-qY-2" vertex="1">
          <mxGeometry x="340.62" y="240" width="79.38" height="30" as="geometry" />
        </mxCell>
        <mxCell id="Ob1HFFcRESBsvUVa0jNh-27" value="&lt;font&gt;กรอกข้อมูล&lt;/font&gt;" style="rounded=1;whiteSpace=wrap;html=1;" parent="nBgqKDF0Gr87tgt5A-qY-2" vertex="1">
          <mxGeometry x="96.88" y="345" width="93.75" height="30" as="geometry" />
        </mxCell>
        <mxCell id="Ob1HFFcRESBsvUVa0jNh-45" style="edgeStyle=orthogonalEdgeStyle;rounded=0;orthogonalLoop=1;jettySize=auto;html=1;entryX=0.5;entryY=0;entryDx=0;entryDy=0;" parent="nBgqKDF0Gr87tgt5A-qY-2" source="Ob1HFFcRESBsvUVa0jNh-28" target="Ob1HFFcRESBsvUVa0jNh-29" edge="1">
          <mxGeometry relative="1" as="geometry" />
        </mxCell>
        <mxCell id="KhTa7fbh25I5_2k13V2K-1" style="edgeStyle=orthogonalEdgeStyle;rounded=0;orthogonalLoop=1;jettySize=auto;html=1;exitX=1;exitY=0.5;exitDx=0;exitDy=0;entryX=0;entryY=0.5;entryDx=0;entryDy=0;" edge="1" parent="nBgqKDF0Gr87tgt5A-qY-2" source="Ob1HFFcRESBsvUVa0jNh-28" target="Ob1HFFcRESBsvUVa0jNh-57">
          <mxGeometry relative="1" as="geometry">
            <Array as="points">
              <mxPoint x="210" y="470" />
              <mxPoint x="210" y="410" />
            </Array>
          </mxGeometry>
        </mxCell>
        <mxCell id="Ob1HFFcRESBsvUVa0jNh-28" value="&lt;font&gt;ยืนยันคำขอจอง&lt;/font&gt;" style="rounded=1;whiteSpace=wrap;html=1;" parent="nBgqKDF0Gr87tgt5A-qY-2" vertex="1">
          <mxGeometry x="98.13" y="455" width="85" height="30" as="geometry" />
        </mxCell>
        <mxCell id="Ob1HFFcRESBsvUVa0jNh-49" style="edgeStyle=orthogonalEdgeStyle;rounded=0;orthogonalLoop=1;jettySize=auto;html=1;entryX=0.5;entryY=0;entryDx=0;entryDy=0;" parent="nBgqKDF0Gr87tgt5A-qY-2" source="Ob1HFFcRESBsvUVa0jNh-29" target="Ob1HFFcRESBsvUVa0jNh-30" edge="1">
          <mxGeometry relative="1" as="geometry" />
        </mxCell>
        <mxCell id="Ob1HFFcRESBsvUVa0jNh-29" value="&lt;font&gt;สถานะการจอง&lt;/font&gt;" style="rounded=1;whiteSpace=wrap;html=1;" parent="nBgqKDF0Gr87tgt5A-qY-2" vertex="1">
          <mxGeometry x="96.88" y="510" width="87.5" height="30" as="geometry" />
        </mxCell>
        <mxCell id="Ob1HFFcRESBsvUVa0jNh-48" style="edgeStyle=orthogonalEdgeStyle;rounded=0;orthogonalLoop=1;jettySize=auto;html=1;entryX=0.5;entryY=0;entryDx=0;entryDy=0;" parent="nBgqKDF0Gr87tgt5A-qY-2" source="Ob1HFFcRESBsvUVa0jNh-30" target="Ob1HFFcRESBsvUVa0jNh-31" edge="1">
          <mxGeometry relative="1" as="geometry" />
        </mxCell>
        <mxCell id="Ob1HFFcRESBsvUVa0jNh-64" style="edgeStyle=orthogonalEdgeStyle;rounded=0;orthogonalLoop=1;jettySize=auto;html=1;entryX=0;entryY=0.5;entryDx=0;entryDy=0;" parent="nBgqKDF0Gr87tgt5A-qY-2" source="Ob1HFFcRESBsvUVa0jNh-30" target="Ob1HFFcRESBsvUVa0jNh-55" edge="1">
          <mxGeometry relative="1" as="geometry">
            <Array as="points">
              <mxPoint x="250" y="585" />
              <mxPoint x="250" y="515" />
            </Array>
          </mxGeometry>
        </mxCell>
        <mxCell id="Ob1HFFcRESBsvUVa0jNh-30" value="&lt;font&gt;ชำระเงิน&lt;/font&gt;" style="rounded=1;whiteSpace=wrap;html=1;" parent="nBgqKDF0Gr87tgt5A-qY-2" vertex="1">
          <mxGeometry x="96.88" y="570" width="87.5" height="30" as="geometry" />
        </mxCell>
        <mxCell id="Ob1HFFcRESBsvUVa0jNh-50" style="edgeStyle=orthogonalEdgeStyle;rounded=0;orthogonalLoop=1;jettySize=auto;html=1;" parent="nBgqKDF0Gr87tgt5A-qY-2" source="Ob1HFFcRESBsvUVa0jNh-31" target="Ob1HFFcRESBsvUVa0jNh-32" edge="1">
          <mxGeometry relative="1" as="geometry" />
        </mxCell>
        <mxCell id="Ob1HFFcRESBsvUVa0jNh-31" value="&lt;font&gt;รอการดำเนินการ&lt;/font&gt;" style="rounded=1;whiteSpace=wrap;html=1;" parent="nBgqKDF0Gr87tgt5A-qY-2" vertex="1">
          <mxGeometry x="98.13" y="630" width="83.75" height="30" as="geometry" />
        </mxCell>
        <mxCell id="Ob1HFFcRESBsvUVa0jNh-51" style="edgeStyle=orthogonalEdgeStyle;rounded=0;orthogonalLoop=1;jettySize=auto;html=1;entryX=0;entryY=0.75;entryDx=0;entryDy=0;" parent="nBgqKDF0Gr87tgt5A-qY-2" source="Ob1HFFcRESBsvUVa0jNh-32" target="Ob1HFFcRESBsvUVa0jNh-33" edge="1">
          <mxGeometry relative="1" as="geometry">
            <Array as="points">
              <mxPoint x="300" y="705" />
              <mxPoint x="300" y="643" />
            </Array>
          </mxGeometry>
        </mxCell>
        <mxCell id="Ob1HFFcRESBsvUVa0jNh-32" value="&lt;font&gt;รีวิวการบริการ&lt;/font&gt;" style="rounded=1;whiteSpace=wrap;html=1;" parent="nBgqKDF0Gr87tgt5A-qY-2" vertex="1">
          <mxGeometry x="98.13" y="690" width="83.75" height="30" as="geometry" />
        </mxCell>
        <mxCell id="Ob1HFFcRESBsvUVa0jNh-52" style="edgeStyle=orthogonalEdgeStyle;rounded=0;orthogonalLoop=1;jettySize=auto;html=1;entryX=0.5;entryY=0;entryDx=0;entryDy=0;" parent="nBgqKDF0Gr87tgt5A-qY-2" source="Ob1HFFcRESBsvUVa0jNh-33" target="Ob1HFFcRESBsvUVa0jNh-9" edge="1">
          <mxGeometry relative="1" as="geometry" />
        </mxCell>
        <mxCell id="Ob1HFFcRESBsvUVa0jNh-33" value="&lt;font&gt;บันทึกรีวิว&lt;/font&gt;" style="rounded=1;whiteSpace=wrap;html=1;" parent="nBgqKDF0Gr87tgt5A-qY-2" vertex="1">
          <mxGeometry x="340.62" y="620" width="85" height="30" as="geometry" />
        </mxCell>
        <mxCell id="Ob1HFFcRESBsvUVa0jNh-43" style="edgeStyle=orthogonalEdgeStyle;rounded=0;orthogonalLoop=1;jettySize=auto;html=1;entryX=0;entryY=0.5;entryDx=0;entryDy=0;exitX=0;exitY=0.5;exitDx=0;exitDy=0;" parent="nBgqKDF0Gr87tgt5A-qY-2" source="Ob1HFFcRESBsvUVa0jNh-35" target="Ob1HFFcRESBsvUVa0jNh-27" edge="1">
          <mxGeometry relative="1" as="geometry" />
        </mxCell>
        <mxCell id="Ob1HFFcRESBsvUVa0jNh-59" style="edgeStyle=orthogonalEdgeStyle;rounded=0;orthogonalLoop=1;jettySize=auto;html=1;" parent="nBgqKDF0Gr87tgt5A-qY-2" source="Ob1HFFcRESBsvUVa0jNh-35" target="Ob1HFFcRESBsvUVa0jNh-28" edge="1">
          <mxGeometry relative="1" as="geometry" />
        </mxCell>
        <mxCell id="Ob1HFFcRESBsvUVa0jNh-35" value="&lt;font&gt;ตรวจสอบ&lt;/font&gt;" style="rhombus;whiteSpace=wrap;html=1;" parent="nBgqKDF0Gr87tgt5A-qY-2" vertex="1">
          <mxGeometry x="100.63" y="385" width="80" height="40" as="geometry" />
        </mxCell>
        <mxCell id="Ob1HFFcRESBsvUVa0jNh-65" style="edgeStyle=orthogonalEdgeStyle;rounded=0;orthogonalLoop=1;jettySize=auto;html=1;entryX=1;entryY=0.5;entryDx=0;entryDy=0;exitX=0;exitY=0.5;exitDx=0;exitDy=0;" parent="nBgqKDF0Gr87tgt5A-qY-2" source="Ob1HFFcRESBsvUVa0jNh-54" target="Ob1HFFcRESBsvUVa0jNh-31" edge="1">
          <mxGeometry relative="1" as="geometry">
            <Array as="points">
              <mxPoint x="300" y="565" />
              <mxPoint x="300" y="620" />
              <mxPoint x="240" y="620" />
              <mxPoint x="240" y="645" />
            </Array>
          </mxGeometry>
        </mxCell>
        <mxCell id="Ob1HFFcRESBsvUVa0jNh-54" value="&lt;font&gt;ใบเสร็จอิเล็กทรอนิกส์&lt;/font&gt;" style="rounded=1;whiteSpace=wrap;html=1;" parent="nBgqKDF0Gr87tgt5A-qY-2" vertex="1">
          <mxGeometry x="337.5" y="550" width="85" height="30" as="geometry" />
        </mxCell>
        <mxCell id="Ob1HFFcRESBsvUVa0jNh-55" value="&lt;font&gt;ยืนยันชำระเงิน&lt;/font&gt;" style="rounded=1;whiteSpace=wrap;html=1;" parent="nBgqKDF0Gr87tgt5A-qY-2" vertex="1">
          <mxGeometry x="337.5" y="500" width="85" height="30" as="geometry" />
        </mxCell>
        <mxCell id="Ob1HFFcRESBsvUVa0jNh-63" style="edgeStyle=orthogonalEdgeStyle;rounded=0;orthogonalLoop=1;jettySize=auto;html=1;entryX=1;entryY=0.5;entryDx=0;entryDy=0;" parent="nBgqKDF0Gr87tgt5A-qY-2" source="Ob1HFFcRESBsvUVa0jNh-56" target="Ob1HFFcRESBsvUVa0jNh-29" edge="1">
          <mxGeometry relative="1" as="geometry">
            <Array as="points">
              <mxPoint x="230" y="480" />
              <mxPoint x="230" y="525" />
            </Array>
          </mxGeometry>
        </mxCell>
        <mxCell id="Ob1HFFcRESBsvUVa0jNh-56" value="&lt;font&gt;อัปเดตสถานะคำขอ&lt;/font&gt;" style="rounded=1;whiteSpace=wrap;html=1;" parent="nBgqKDF0Gr87tgt5A-qY-2" vertex="1">
          <mxGeometry x="337.5" y="450" width="85" height="30" as="geometry" />
        </mxCell>
        <mxCell id="Ob1HFFcRESBsvUVa0jNh-57" value="&lt;font&gt;บันทึกคำขอ&lt;/font&gt;" style="rounded=1;whiteSpace=wrap;html=1;" parent="nBgqKDF0Gr87tgt5A-qY-2" vertex="1">
          <mxGeometry x="337.5" y="395" width="82.5" height="30" as="geometry" />
        </mxCell>
        <mxCell id="Ob1HFFcRESBsvUVa0jNh-61" value="" style="endArrow=classic;html=1;rounded=0;entryX=0.5;entryY=0;entryDx=0;entryDy=0;" parent="nBgqKDF0Gr87tgt5A-qY-2" target="Ob1HFFcRESBsvUVa0jNh-10" edge="1">
          <mxGeometry width="50" height="50" relative="1" as="geometry">
            <mxPoint x="140" y="80" as="sourcePoint" />
            <mxPoint x="390" y="170" as="targetPoint" />
          </mxGeometry>
        </mxCell>
        <mxCell id="Ob1HFFcRESBsvUVa0jNh-74" style="edgeStyle=orthogonalEdgeStyle;rounded=0;orthogonalLoop=1;jettySize=auto;html=1;entryX=0.5;entryY=0;entryDx=0;entryDy=0;" parent="nBgqKDF0Gr87tgt5A-qY-2" source="Ob1HFFcRESBsvUVa0jNh-66" target="Ob1HFFcRESBsvUVa0jNh-67" edge="1">
          <mxGeometry relative="1" as="geometry" />
        </mxCell>
        <mxCell id="Ob1HFFcRESBsvUVa0jNh-66" value="&lt;font&gt;ตรวจสอบคำขอบริการ&lt;/font&gt;" style="rounded=1;whiteSpace=wrap;html=1;" parent="nBgqKDF0Gr87tgt5A-qY-2" vertex="1">
          <mxGeometry x="570" y="395" width="85" height="30" as="geometry" />
        </mxCell>
        <mxCell id="Ob1HFFcRESBsvUVa0jNh-75" style="edgeStyle=orthogonalEdgeStyle;rounded=0;orthogonalLoop=1;jettySize=auto;html=1;entryX=1;entryY=0.5;entryDx=0;entryDy=0;" parent="nBgqKDF0Gr87tgt5A-qY-2" source="Ob1HFFcRESBsvUVa0jNh-67" target="Ob1HFFcRESBsvUVa0jNh-56" edge="1">
          <mxGeometry relative="1" as="geometry" />
        </mxCell>
        <mxCell id="Ob1HFFcRESBsvUVa0jNh-67" value="&lt;font&gt;มอบหมายช่าง&lt;/font&gt;" style="rounded=1;whiteSpace=wrap;html=1;" parent="nBgqKDF0Gr87tgt5A-qY-2" vertex="1">
          <mxGeometry x="570" y="450" width="85" height="30" as="geometry" />
        </mxCell>
        <mxCell id="Ob1HFFcRESBsvUVa0jNh-73" value="" style="endArrow=classic;html=1;rounded=0;entryX=0;entryY=0.5;entryDx=0;entryDy=0;exitX=1;exitY=0.5;exitDx=0;exitDy=0;" parent="nBgqKDF0Gr87tgt5A-qY-2" source="Ob1HFFcRESBsvUVa0jNh-57" target="Ob1HFFcRESBsvUVa0jNh-66" edge="1">
          <mxGeometry width="50" height="50" relative="1" as="geometry">
            <mxPoint x="340" y="490" as="sourcePoint" />
            <mxPoint x="390" y="440" as="targetPoint" />
          </mxGeometry>
        </mxCell>
        <mxCell id="8RW8j6H5BIztu4ExTgXI-2" value="y" style="text;html=1;align=center;verticalAlign=middle;resizable=0;points=[];autosize=1;strokeColor=none;fillColor=none;" parent="nBgqKDF0Gr87tgt5A-qY-2" vertex="1">
          <mxGeometry x="130" y="420" width="30" height="30" as="geometry" />
        </mxCell>
        <mxCell id="8RW8j6H5BIztu4ExTgXI-3" value="n" style="text;html=1;align=center;verticalAlign=middle;resizable=0;points=[];autosize=1;strokeColor=none;fillColor=none;" parent="nBgqKDF0Gr87tgt5A-qY-2" vertex="1">
          <mxGeometry x="80" y="385" width="30" height="30" as="geometry" />
        </mxCell>
      </root>
    </mxGraphModel>
  </diagram>
  <diagram id="y3ERefObrvKIbjtvA9Qp" name="Page-2">
    <mxGraphModel dx="989" dy="497" grid="1" gridSize="10" guides="1" tooltips="1" connect="1" arrows="1" fold="1" page="1" pageScale="1" pageWidth="850" pageHeight="1100" math="0" shadow="0">
      <root>
        <mxCell id="0" />
        <mxCell id="1" parent="0" />
        <mxCell id="3poI47as6UKm3n-QGSa4-1" value="" style="whiteSpace=wrap;html=1;aspect=fixed;" vertex="1" parent="1">
          <mxGeometry x="160" y="90" width="300" height="300" as="geometry" />
        </mxCell>
        <mxCell id="3poI47as6UKm3n-QGSa4-2" value="" style="endArrow=none;html=1;rounded=0;exitX=-0.007;exitY=0.086;exitDx=0;exitDy=0;exitPerimeter=0;" edge="1" parent="1">
          <mxGeometry width="50" height="50" relative="1" as="geometry">
            <mxPoint x="160.00000000000009" y="117.84000000000003" as="sourcePoint" />
            <mxPoint x="460" y="118" as="targetPoint" />
          </mxGeometry>
        </mxCell>
        <mxCell id="3poI47as6UKm3n-QGSa4-3" value="" style="endArrow=none;html=1;rounded=0;entryX=0.5;entryY=0;entryDx=0;entryDy=0;exitX=0.5;exitY=1;exitDx=0;exitDy=0;" edge="1" parent="1" source="3poI47as6UKm3n-QGSa4-1" target="3poI47as6UKm3n-QGSa4-1">
          <mxGeometry width="50" height="50" relative="1" as="geometry">
            <mxPoint x="400" y="300" as="sourcePoint" />
            <mxPoint x="450" y="250" as="targetPoint" />
          </mxGeometry>
        </mxCell>
        <mxCell id="3poI47as6UKm3n-QGSa4-4" value="แอดมิน" style="text;html=1;align=center;verticalAlign=middle;resizable=0;points=[];autosize=1;strokeColor=none;fillColor=none;" vertex="1" parent="1">
          <mxGeometry x="202.5" y="90" width="60" height="30" as="geometry" />
        </mxCell>
        <mxCell id="3poI47as6UKm3n-QGSa4-5" value="ระบบ" style="text;html=1;align=center;verticalAlign=middle;resizable=0;points=[];autosize=1;strokeColor=none;fillColor=none;" vertex="1" parent="1">
          <mxGeometry x="350" y="90" width="50" height="30" as="geometry" />
        </mxCell>
        <mxCell id="3poI47as6UKm3n-QGSa4-12" style="edgeStyle=orthogonalEdgeStyle;rounded=0;orthogonalLoop=1;jettySize=auto;html=1;entryX=0;entryY=0.5;entryDx=0;entryDy=0;" edge="1" parent="1" source="3poI47as6UKm3n-QGSa4-6" target="3poI47as6UKm3n-QGSa4-7">
          <mxGeometry relative="1" as="geometry" />
        </mxCell>
        <mxCell id="3poI47as6UKm3n-QGSa4-6" value="เข้าสู่ระบบ" style="rounded=1;whiteSpace=wrap;html=1;" vertex="1" parent="1">
          <mxGeometry x="185" y="210" width="95" height="40" as="geometry" />
        </mxCell>
        <mxCell id="3poI47as6UKm3n-QGSa4-13" style="edgeStyle=orthogonalEdgeStyle;rounded=0;orthogonalLoop=1;jettySize=auto;html=1;" edge="1" parent="1" source="3poI47as6UKm3n-QGSa4-7" target="3poI47as6UKm3n-QGSa4-10">
          <mxGeometry relative="1" as="geometry" />
        </mxCell>
        <mxCell id="3poI47as6UKm3n-QGSa4-7" value="เรียกดูรายงาน" style="rounded=1;whiteSpace=wrap;html=1;" vertex="1" parent="1">
          <mxGeometry x="340" y="210" width="95" height="40" as="geometry" />
        </mxCell>
        <mxCell id="3poI47as6UKm3n-QGSa4-11" style="edgeStyle=orthogonalEdgeStyle;rounded=0;orthogonalLoop=1;jettySize=auto;html=1;" edge="1" parent="1" source="3poI47as6UKm3n-QGSa4-9" target="3poI47as6UKm3n-QGSa4-6">
          <mxGeometry relative="1" as="geometry" />
        </mxCell>
        <mxCell id="3poI47as6UKm3n-QGSa4-9" value="" style="ellipse;whiteSpace=wrap;html=1;aspect=fixed;fillColor=#000000;" vertex="1" parent="1">
          <mxGeometry x="217.5" y="140" width="30" height="30" as="geometry" />
        </mxCell>
        <mxCell id="3poI47as6UKm3n-QGSa4-10" value="" style="ellipse;html=1;shape=endState;fillColor=#000000;strokeColor=#000000;" vertex="1" parent="1">
          <mxGeometry x="372.5" y="340" width="30" height="30" as="geometry" />
        </mxCell>
      </root>
    </mxGraphModel>
  </diagram>
</mxfile>
